<svg xmlns="http://www.w3.org/2000/svg" width="256" height="256"><path fill-opacity=".016" d="M0 128.004v128.004l128.25-.254 128.25-.254.254-127.75L257.008 0H0v128.004m.485.496c0 70.4.119 99.053.265 63.672.146-35.38.146-92.98 0-128C.604 29.153.485 58.1.485 128.5" fill="#1976D2" fill-rule="evenodd"/><path fill-opacity=".263" d="M121.5 2.63c-7.002 1.076-20.111 4.734-26.799 7.478C86.857 13.327 72 21.903 72 23.213c0 .449 2.813-.605 6.25-2.341 24.887-12.572 56.692-14.501 81.391-4.936 30.717 11.895 48.597 42.25 44.342 75.28-5.209 40.431-32.705 71.219-72.655 81.353-14.119 3.581-33.302 3.095-38.883-.986-1.663-1.216-1.674-1.553-.17-5.311.883-2.208 1.356-4.967 1.051-6.133-.305-1.165-3.558-4.345-7.229-7.067-16.077-11.918-24.577-24.386-26.586-38.995l-.741-5.383 5.365.651c41.914 5.085 90.005.971 114.312-9.779 5.681-2.513 7.473-4.627 2.234-2.635-7.655 2.911-25.617 4.531-49.681 4.482-26.731-.055-40.985-1.483-60.5-6.06-6.05-1.419-13.05-3.05-15.555-3.624-9.309-2.134-12.958 1.386-12.928 12.471.06 21.701 11.539 41.865 31.341 55.055 6.681 4.451 6.862 4.683 7.035 9.039l.178 4.471-5.035-1.472c-2.77-.81-7.018-2.337-9.441-3.395-5.858-2.557-6.329-1.703-.939 1.703 6.562 4.147 16.283 8.323 24.751 10.631 9.291 2.533 32.068 3.009 41.593.87 41.47-9.312 74.369-39.085 84.646-76.602 3.251-11.868 3.276-33.812.05-44.955-7.62-26.327-27.668-45.778-55.745-54.086-7.322-2.166-11.409-2.707-22.451-2.97-7.425-.176-14.85-.113-16.5.141m-13 13.788C77.229 22.533 49.092 45.346 37.222 74.21c-4.728 11.497-4.694 12.993.093 4.037 14.56-27.238 39.34-46.45 68.068-52.772 11.641-2.562 29.32-1.698 40.117 1.961 11.69 3.962 18.016 7.934 27.054 16.993 9.124 9.143 14.342 18.389 17.006 30.131.867 3.817 1.986 8.29 2.488 9.94 1.554 5.106.022-12.328-1.658-18.872-5.895-22.959-24.725-41.869-47.963-48.168-8.173-2.215-25.245-2.74-33.927-1.042m9.541 32.541c-6.704 6.704-10.216 15.821-8.169 21.205.943 2.48 4.813 6.836 6.074 6.836.313 0 .403-2.082.2-4.628-.255-3.213-.028-4.417.743-3.941.611.378 1.111 2.685 1.111 5.128s.338 4.425.75 4.405c1.25-.061 6.27-7.197 6.94-9.866.345-1.374.106-5.023-.531-8.109-.638-3.085-1.159-7.72-1.159-10.299 0-2.58-.45-4.69-1-4.69s-2.781 1.781-4.959 3.959m28.08-.249c-4.365 2.151-7.113 6.735-7.117 11.877-.004 3.714-1.194 5.616-13.055 20.865-7.179 9.228-12.823 17.007-12.544 17.287 1.34 1.339 4.321-1.815 15.986-16.914C140.33 67.665 142 65.012 142 61.799c0-5.143 1.849-8.686 5.445-10.434 2.998-1.458 3.015-1.452.922.325-3.044 2.583-4.367 5.612-4.367 9.996 0 3.358-1.516 5.779-12.602 20.13-6.932 8.972-12.398 16.518-12.147 16.768.251.251 4.109.738 8.574 1.082 5.67.437 8.554.264 9.564-.574.795-.66 4.72-6.8 8.722-13.646 5.317-9.095 7.794-12.446 9.2-12.446 1.058 0 3.671-1.747 5.807-3.882 3.326-3.327 3.881-4.508 3.878-8.25-.005-5.583-2.999-10.553-7.486-12.428-4.439-1.855-7.209-1.789-11.389.27M68.5 64.523c-2.75.764-5.337 1.409-5.75 1.433-1.9.112-.35 1.967 4 4.785 2.613 1.693 7.874 6.554 11.691 10.803 8.574 9.541 12.29 11.404 22.809 11.434 4.263.012 7.75-.407 7.75-.931 0-.912-10.813-10.591-16.015-14.335-1.367-.984.667-.199 4.52 1.745 3.853 1.943 8.22 4.66 9.706 6.038 1.486 1.378 2.946 2.505 3.245 2.505 1.517 0 .271-8.926-1.744-12.5-5.865-10.401-24.231-15.414-40.212-10.977m117.251 41.233c-2.134.476-3.418 4.959-2.047 7.149 1.336 2.136 5.665 2.56 7.204.706 3.055-3.681-.385-8.919-5.157-7.855m-23.678 10.879c-1.14 1.449-2.073 3.188-2.073 3.865s.933 2.416 2.073 3.865c3.981 5.062 10.927 2.432 10.927-4.137 0-5.94-7.215-8.312-10.927-3.593m-44.559 6.567c-.252.714-.584 3.773-.737 6.798l-.277 5.5-6.795.297-6.794.296.294 6.704.295 6.703 6.75.296 6.75.295v13l6.75-.295 6.75-.296.298-6.25.297-6.25H144v-14H131.091l-.295-6.75-.296-6.75-6.263-.298c-4.45-.212-6.396.078-6.723 1m46.236 15.878c-3.25 1.893-1.495 6.92 2.415 6.92.97 0 2.266-.937 2.88-2.083.889-1.662.764-2.471-.62-4-1.977-2.185-2.271-2.237-4.675-.837M17 216.465V232h6v-12h6.5c6.267 0 6.5-.09 6.5-2.5s-.233-2.5-6.5-2.5H23v-7.912l7.25-.294c6.988-.283 7.25-.384 7.25-2.794 0-2.486-.059-2.502-10.25-2.785L17 200.93v15.535m33.698-14.772c-.501.826-10.238 23.997-11.789 28.057-.77 2.015-.555 2.25 2.051 2.25 2.419 0 3.124-.592 4.176-3.5l1.266-3.5H60.845L62 228.5c.97 2.938 1.624 3.5 4.078 3.5 1.607 0 2.922-.117 2.922-.261 0-.144-2.828-7.006-6.284-15.25-5.665-13.513-6.542-15.019-8.905-15.296-1.442-.169-2.843.056-3.113.5M73 216.5V232h2.5c2.333 0 2.5-.333 2.5-5v-5h3.492c3.087 0 3.871.579 6.75 4.982 2.591 3.963 3.821 4.986 6.008 5 1.513.01 2.75-.246 2.75-.569 0-.322-1.442-2.594-3.205-5.049l-3.205-4.462 2.804-2.236c2.098-1.673 2.929-3.358 3.302-6.7.918-8.215-4.528-11.949-17.446-11.96L73 201v15.5m29 0V232h2.465c2.438 0 2.468-.11 2.75-10.082l.285-10.081 3.82 7.081c5.027 9.318 6.408 9.297 11.375-.167l3.805-7.249.285 10.249c.282 10.15.309 10.249 2.75 10.249H132v-31h-2.408c-1.981 0-3.254 1.508-7.179 8.5-2.624 4.675-5.06 8.5-5.413 8.5-.353 0-2.789-3.825-5.413-8.5-3.925-6.992-5.198-8.5-7.179-8.5H102v15.5m46.703-14.807c-.267.444-2.528 5.757-5.024 11.807a2993.474 2993.474 0 0 1-6.123 14.75l-1.583 3.75h2.949c2.462 0 3.157-.577 4.214-3.5l1.266-3.5H158.845l1.155 3.5c.97 2.938 1.624 3.5 4.078 3.5 1.607 0 2.922-.117 2.922-.261 0-.144-2.828-7.006-6.284-15.25-5.665-13.513-6.542-15.019-8.905-15.296-1.442-.169-2.841.056-3.108.5m27.317 1.059c-5.062 2.543-8.02 7.495-8.02 13.428 0 9.498 4.625 15.259 13.194 16.433 4.955.679 11.806-1.607 11.806-3.94 0-2.258-2.426-3.847-3.79-2.483-.629.629-3.211 1.143-5.737 1.143-6.638 0-9.973-3.49-9.973-10.438 0-4.489.382-5.401 3.392-8.09 3.46-3.091 5.857-3.328 12.772-1.263 1.565.467 2.46.095 3.23-1.344.922-1.724.613-2.204-2.316-3.594-4.412-2.094-10.214-2.035-14.558.148M198 216.5V232h5v-31h-5v15.5m21.698-14.807c-.501.826-10.238 23.997-11.789 28.057-.77 2.015-.555 2.25 2.051 2.25 2.419 0 3.124-.592 4.176-3.5l1.266-3.5h14.196l1.266 3.5c1.053 2.912 1.756 3.5 4.186 3.5h2.921l-1.898-4.75c-8.864-22.183-10.682-25.747-13.297-26.057-1.423-.169-2.808.056-3.078.5M78 211.373V217h5.3c5.94 0 7.7-1.16 7.7-5.078 0-3.623-2.126-5.132-8.033-5.699L78 205.746v5.627m-26.764 1.77c-1.23 2.968-2.236 5.724-2.236 6.126 0 .402 2.025.731 4.5.731 5.194 0 5.318-.418 2.175-7.376l-2.202-4.877-2.237 5.396m97.946.332c-1.224 3.199-2.039 6.002-1.811 6.229.228.228 2.414.275 4.859.105l4.446-.309-2.634-5.92-2.634-5.92-2.226 5.815m71.054-.332c-1.23 2.968-2.236 5.724-2.236 6.126 0 .402 2.025.731 4.5.731 5.194 0 5.318-.418 2.175-7.376l-2.202-4.877-2.237 5.396M54.529 245.355c-2.478 1.812-1.421 4.229 2.682 6.136l3.289 1.527-3.211-.476c-3.436-.51-5.446 1.111-3.167 2.554 2.167 1.373 6.511 1.051 7.867-.583 1.749-2.107.617-4.23-3.2-6.004l-3.289-1.527 3.25.484c2.319.345 3.25.092 3.25-.884 0-2.607-4.56-3.356-7.471-1.227m13.094-.553c-.273.44-1.418 3.14-2.545 6-1.659 4.21-1.778 5.198-.622 5.198.784 0 1.704-.45 2.044-1 .34-.55 1.716-1 3.059-1 1.343 0 2.441.45 2.441 1s.675 1 1.5 1c1.972 0 1.901-.768-.633-6.867-1.952-4.695-3.983-6.373-5.244-4.331M76 250c0 4.549.347 6 1.437 6 .89 0 1.556-1.237 1.75-3.25l.313-3.25 1.966 3.25c1.081 1.787 2.791 3.25 3.8 3.25 1.598 0 1.795-.728 1.534-5.671-.332-6.273-2.78-9.011-2.827-3.162l-.027 3.333-2.723-3.259C77.158 242.376 76 242.988 76 250m12-4.5c0 .825.675 1.5 1.5 1.5 1.111 0 1.5 1.167 1.5 4.5s.389 4.5 1.5 4.5c1.105 0 1.5-1.154 1.5-4.383 0-3.613.369-4.48 2.101-4.933 3.493-.914 1.08-2.684-3.66-2.684-3.281 0-4.441.392-4.441 1.5m11 4.5c0 4.667.333 6 1.5 6s1.5-1.333 1.5-6-.333-6-1.5-6-1.5 1.333-1.5 6m4 0v6h3.845c2.455 0 4.443-.661 5.5-1.829 3.804-4.203.374-10.171-5.845-10.171H103v6m13.139-.411c-2.547 6.655-2.523 6.411-.639 6.411.825 0 1.5-.45 1.5-1 0-1.383 3.62-1.254 5.968.212 3.009 1.88 3.181.635.763-5.525-2.908-7.408-4.785-7.433-7.592-.098M127 250v6h3.845c2.455 0 4.443-.661 5.5-1.829 3.804-4.203.374-10.171-5.845-10.171H127v6m16 .057v6.058l4.227-.308c5.066-.368 7.268-3.376 5.628-7.688-1.243-3.27-2.554-4.085-6.605-4.104L143 244v6.057m12-.057c0 4.667.333 6 1.5 6s1.5-1.333 1.5-6-.333-6-1.5-6-1.5 1.333-1.5 6m4.363-3.692c1.258 5.012 3.738 9.692 5.137 9.692 1.399 0 3.879-4.68 5.137-9.692 1.072-4.27-2.359-2.641-3.849 1.828l-1.378 4.135-1.365-4.135c-1.457-4.413-4.74-6.043-3.682-1.828m12.325-1.662c-.379.378-.688 3.087-.688 6.021 0 4.71.24 5.333 2.05 5.333 1.861 0 2.022-.523 1.75-5.671-.277-5.245-1.436-7.36-3.112-5.683M176 250c0 4.667.333 6 1.5 6 1.024 0 1.5-1.026 1.5-3.236v-3.236l2.25 3.219c1.238 1.77 3.06 3.226 4.05 3.236 1.558.015 1.76-.744 1.5-5.654-.332-6.28-2.77-8.993-2.841-3.162l-.04 3.333-2.782-3.25c-4.092-4.78-5.137-4.22-5.137 2.75m14.152-.911c-2.554 6.145-2.626 6.911-.652 6.911.825 0 1.5-.45 1.5-1s1.125-1 2.5-1 2.5.45 2.5 1 .863 1 1.917 1c1.854 0 1.844-.19-.309-5.748-2.906-7.501-4.706-7.782-7.456-1.163M106 250c0 2.303.451 3 1.941 3 1.068 0 2.222-.454 2.565-1.009 1.092-1.767-.57-4.991-2.573-4.991-1.481 0-1.933.702-1.933 3m24 0c0 2.349.441 3 2.031 3 2.518 0 3.612-2.521 1.958-4.513-2.072-2.496-3.989-1.769-3.989 1.513m16-.073c0 2.439.426 3.073 2.066 3.073 1.663 0 2.005-.535 1.75-2.741-.19-1.654-1.011-2.874-2.066-3.074-1.359-.258-1.75.355-1.75 2.742m-77.362-.427c-.316.825-.139 1.5.393 1.5.533 0 .969-.675.969-1.5s-.177-1.5-.393-1.5c-.216 0-.652.675-.969 1.5m124.362 0c0 .825.436 1.5.969 1.5.532 0 .709-.675.393-1.5-.317-.825-.753-1.5-.969-1.5-.216 0-.393.675-.393 1.5m-74 .5c0 .55.45 1 1 1s1-.45 1-1-.45-1-1-1-1 .45-1 1" fill="#1976D2" fill-rule="evenodd"/><path fill-opacity=".297" d="M122.5 3.065c-11.219 1.502-24.226 5.597-35.241 11.097-11.313 5.647-16.26 9.591-6.138 4.893 14.851-6.894 35.53-10.793 51.101-9.636 22.984 1.709 45.383 12.424 57.508 27.511 5.144 6.401 11.41 19.056 13.402 27.07 2.26 9.086 1.746 29.809-.99 40-4.312 16.055-11.702 29.428-22.585 40.867-11.783 12.387-24.778 20.613-41.057 25.994-13.468 4.451-22.467 5.603-33.535 4.295-11.009-1.302-14.475-3.099-13.493-6.994 2.244-8.901 2.55-8.26-7.922-16.597C68.243 139.379 59.93 126.323 59.633 114c-.12-4.942.07-5.478 1.867-5.287 29.355 3.126 63.961 2.829 84.5-.727 11.903-2.06 31.796-7.773 35-10.051 1.205-.857 1.087-.951-.604-.479-9.091 2.534-21.366 3.798-41.442 4.266-30.461.71-52.658-1.504-74.954-7.474-13.628-3.649-15.086-3.755-18.192-1.312-3.664 2.882-4.465 9.872-2.462 21.48 3.068 17.781 12.956 32.434 29.904 44.317 7.677 5.382 7.75 5.475 7.75 9.85 0 2.429-.417 4.417-.928 4.417-.51 0-4.672-1.32-9.25-2.934-9.797-3.455-8.058-1.604 3.801 4.043 13.387 6.375 23.121 8.191 40.877 7.626 17.414-.553 26.785-2.819 42.22-10.207 11.899-5.695 19.731-11.063 29.039-19.902 9.476-8.998 15.203-16.43 20.715-26.883 13.534-25.665 14.846-53.58 3.627-77.135-4.463-9.371-6.96-12.888-14.871-20.943-10.609-10.803-25.759-18.992-41.078-22.206-9.004-1.889-24.135-2.535-32.652-1.394m-20 15.318c-4.95 1.317-11.662 3.578-14.917 5.024-20.157 8.961-39.777 28.604-49.18 49.236-4.338 9.52-4.321 10.644.04 2.553 12.281-22.788 38.159-43.191 62.425-49.219 41.688-10.355 80.338 10.754 89.61 48.939 1.044 4.3 1.375 4.873 1.439 2.494.147-5.479-3.739-18.262-8.117-26.697-7.545-14.537-20.745-25.615-37.31-31.315-6.857-2.36-9.904-2.796-21.49-3.079-11.736-.287-14.676-.018-22.5 2.064m16.317 30.466c-7.782 6.847-11.115 18.96-6.744 24.516 1.139 1.449 2.489 2.635 3 2.635.51 0 .959-2.588.997-5.75.108-8.831 1.771-11.27 1.875-2.75.118 9.623 1.126 10.861 4.586 5.633 2.935-4.435 2.95-4.931.687-22.078l-.718-5.445-3.683 3.239m25.326 1.684c-3.285 2.764-5.645 8.441-4.82 11.595.383 1.462-2.931 6.458-12.395 18.684-7.105 9.178-12.92 17.026-12.923 17.438-.016 2.292 2.867-.886 14.871-16.39 10.805-13.956 13.161-17.578 12.68-19.492-1.258-5.014 4.134-12.454 8.917-12.305 2.015.063 2.015.069.027.882-3.943 1.614-6 5.024-6 9.948 0 4.463-.568 5.413-12.04 20.145-6.623 8.504-12.387 16.025-12.809 16.712-.594.966 1.367 1.25 8.628 1.25h9.397l7.356-12.488c6.56-11.134 7.85-12.732 11.912-14.75 8.721-4.33 10.354-13.664 3.577-20.441-2.88-2.88-3.988-3.321-8.344-3.321-3.917 0-5.687.558-8.034 2.533M66.702 65.614l-4.798 1.474 5.798 3.876c3.189 2.131 8.191 6.77 11.116 10.309 2.924 3.539 7.116 7.446 9.315 8.682 4.42 2.484 14.011 3.743 17.716 2.326 2.277-.871 2.171-1.062-3.445-6.195-3.188-2.913-8.064-6.824-10.836-8.691-2.773-1.867-4.7-3.395-4.282-3.395 1.638 0 16.572 8.009 19.451 10.432 1.678 1.412 3.286 2.568 3.572 2.568.954 0-.421-8.316-1.824-11.028-2.23-4.313-8.064-8.77-13.652-10.429-6.565-1.95-21.681-1.911-28.131.071m117.309 41.873c-1.663 2.003-.484 6.228 1.954 7.002 4.441 1.409 8.067-4.057 4.835-7.289-1.658-1.658-5.303-1.504-6.789.287M164 115.288c-3.707 1.865-4.068 7.966-.606 10.235 6.547 4.289 13.116-4.617 6.971-9.45-3.079-2.422-3.106-2.426-6.365-.785M117 129.5v6.5H103.909l.295 6.62.296 6.62 6 .13 6 .13.296 6.75.295 6.75h12.818l.295-6.75.296-6.75 6.797-.297 6.796-.296-.296-6.204-.297-6.203-6.75-.296-6.75-.295V123h-13v6.5m46.051 10.939c-1.481 1.784-.771 4.348 1.439 5.196 2.144.822 4.666-1.546 4.308-4.047-.366-2.565-3.974-3.286-5.747-1.149m13.165 62.549c-9.337 4.238-10.956 18.46-2.942 25.846 4.427 4.079 13.28 4.718 18.51 1.336 2.13-1.377.306-4.448-2.172-3.657-7.443 2.375-12.715 1.122-15.159-3.604-2.766-5.348-.975-13.489 3.492-15.879 2.384-1.276 9.049-1.32 11.021-.072 1.523.963 4.034-.364 4.034-2.131 0-1.32-6.413-3.831-9.718-3.805-1.53.012-4.71.897-7.066 1.966M17 217v15h2.5c2.389 0 2.5-.267 2.5-6v-6h7.07c6.759 0 7.055-.099 6.75-2.25-.291-2.047-.935-2.277-7.125-2.547l-6.805-.297.305-4.203.305-4.203 7.25-.294c6.429-.26 7.25-.515 7.25-2.25 0-1.811-.741-1.956-10-1.956H17v15m32.556-11.819C41.321 224.713 39 230.422 39 231.148c0 .468 1.035.852 2.299.852 1.72 0 2.618-.882 3.565-3.5l1.265-3.5h14.742l1.265 3.5c1.021 2.823 1.788 3.5 3.965 3.5h2.698l-6.183-14.75c-5.671-13.527-6.411-14.776-8.922-15.069-2.285-.265-2.971.232-4.138 3M73 217v15h2.5c2.333 0 2.5-.333 2.5-5v-5l3.75.018c3.388.016 4.064.499 7.008 5 2.486 3.803 3.856 4.982 5.785 4.982 2.844 0 2.622-.796-1.911-6.864l-2.514-3.364 2.832-2.383c3.5-2.946 4.484-6.543 3.011-11.007C94.364 203.543 90.759 202 81.05 202H73v15m29 0v15h5l.024-10.75.024-10.75 4.226 7.747c2.386 4.373 4.879 7.741 5.726 7.734.835-.006 3.369-3.443 5.714-7.746l4.213-7.735.037 10.75L127 232h5V201.867l-2.648.317c-2.159.258-3.498 1.835-7.25 8.542-2.531 4.524-4.827 8.233-5.102 8.243-.275.01-2.667-3.804-5.316-8.476-3.976-7.013-5.24-8.493-7.25-8.493H102v15m44.89-10.25c-4.253 9.911-9.89 23.913-9.89 24.568 0 .375 1.09.682 2.422.682 1.882 0 2.681-.781 3.578-3.5l1.155-3.5h14.818l1.463 3.5c1.116 2.671 2.052 3.5 3.951 3.5h2.489l-4.542-10.75c-2.498-5.912-5.267-12.662-6.153-15-1.371-3.614-2.034-4.25-4.432-4.25-2.411 0-3.115.688-4.859 4.75M198 217v15h5v-30h-5v15m21.582-14.133C218.551 204.535 208 230.342 208 231.195c0 .443 1.035.805 2.299.805 1.72 0 2.618-.882 3.565-3.5l1.265-3.5h14.742l1.265 3.5c1.021 2.823 1.788 3.5 3.965 3.5h2.698l-6.183-14.75c-5.57-13.285-6.444-14.781-8.805-15.057-1.442-.169-2.895.134-3.229.674M78 212.124v6.124l5.65-.469c3.953-.328 6.055-1.023 7-2.315C94.202 210.606 90.479 206 83 206h-5v6.124m-27.233 1.351c-2.945 7.423-2.702 7.882 3.878 7.342 4.454-.366 4.518-.924 1.026-8.839l-2.27-5.142-2.634 6.639m98.051-.01c-1.475 3.576-2.375 6.659-2 6.852.375.194 2.861.463 5.525.599 5.501.28 5.492.351 1.269-9.184l-2.112-4.768-2.682 6.501m70.949.01c-2.945 7.423-2.702 7.882 3.878 7.342 4.454-.366 4.518-.924 1.026-8.839l-2.27-5.142-2.634 6.639m-164.528 32.07c-1.815 1.272-2.047 1.946-1.207 3.514.571 1.068 1.896 1.941 2.944 1.941s2.186.453 2.528 1.007c.913 1.477-2.303 2.405-3.859 1.114-1.735-1.44-2.956-.201-1.514 1.537 2.499 3.01 9.532.234 8.2-3.237-.321-.837-1.877-1.78-3.457-2.096C55.095 248.569 55.18 247 59 247c1.65 0 3-.45 3-1s-.413-1-.918-1c-.505 0-1.521-.231-2.258-.514-.736-.283-2.35.194-3.585 1.059m10.746 3.991c-1.235 3.045-1.901 5.857-1.479 6.25.422.393.969.152 1.214-.536.528-1.477 6.28-1.706 6.28-.25 0 .55.675 1 1.5 1s1.5-.212 1.5-.471C75 253.991 69.949 244 69.171 244c-.516 0-1.95 2.491-3.186 5.536m11.057.214c-.024 3.528.394 6.25.958 6.25.55 0 1.012-1.463 1.027-3.25l.027-3.25 2.723 3.259c1.498 1.792 3.061 3.255 3.473 3.25.412-.005.75-2.709.75-6.009 0-3.333-.444-6-1-6-.55 0-1 1.65-1 3.667v3.666l-3.458-3.916-3.459-3.917-.041 6.25M88 245.5c0 .825.675 1.5 1.5 1.5 1.111 0 1.5 1.167 1.5 4.5s.389 4.5 1.5 4.5 1.5-1.167 1.5-4.5.389-4.5 1.5-4.5c.825 0 1.5-.675 1.5-1.5 0-1.111-1.167-1.5-4.5-1.5s-4.5.389-4.5 1.5m11.639-.806c-.351.352-.639 3.039-.639 5.973 0 4.074.354 5.333 1.5 5.333 1.15 0 1.5-1.271 1.5-5.441 0-5.109-.895-7.331-2.361-5.865M104 250v6h3.378c3.563 0 4.941-1.076 6.062-4.733.881-2.877-3.284-7.267-6.895-7.267-2.444 0-2.545.238-2.545 6m14.655-5.251c-.29.47-1.45 3.193-2.577 6.053-1.712 4.345-1.805 5.198-.563 5.198.817 0 1.485-.45 1.485-1s1.35-1 3-1 3 .45 3 1 .644 1 1.431 1c1.137 0 .953-1.174-.894-5.715-2.257-5.547-3.796-7.293-4.882-5.536M128 250c0 5.909.042 6 2.809 6 3.941 0 6.441-2.141 6.441-5.518 0-3.348-3.316-6.482-6.861-6.482-2.253 0-2.389.341-2.389 6m15.743-5.41c-.409.409-.743 3.143-.743 6.077V256h3.429c1.885 0 4.135-.707 5-1.571 1.924-1.925 2.056-6.781.226-8.301-1.773-1.47-6.969-2.481-7.912-1.538m11.896.104c-.351.352-.639 3.039-.639 5.973 0 4.074.354 5.333 1.5 5.333 1.15 0 1.5-1.271 1.5-5.441 0-5.109-.895-7.331-2.361-5.865m3.361-.232c0 2.319 4.452 11.538 5.572 11.538.785 0 1.428-.208 1.428-.463s.886-2.712 1.97-5.46c2.447-6.21.777-8.029-1.801-1.96l-1.805 4.251-1.674-4.184c-.92-2.301-2.127-4.184-2.682-4.184-.554 0-1.008.208-1.008.462M172 250c0 3.333.444 6 1 6s1-2.667 1-6-.444-6-1-6-1 2.667-1 6m4.75-5.421c-.412.415-.75 3.154-.75 6.088 0 4.074.354 5.333 1.5 5.333 1.02 0 1.509-1.04 1.527-3.25l.027-3.25 2.723 3.259c1.498 1.792 3.061 3.255 3.473 3.25.412-.005.75-2.709.75-6.009 0-3.333-.444-6-1-6-.55 0-1 1.65-1 3.667v3.666l-3.25-3.754c-1.787-2.065-3.588-3.415-4-3m13.592 4.985c-2.474 5.403-2.532 8.026-.125 5.619.651-.651 2.128-1.183 3.283-1.183 1.155 0 2.632.532 3.283 1.183 2.334 2.334 2.439-.209.232-5.647-1.236-3.045-2.67-5.536-3.186-5.536-.517 0-2.086 2.504-3.487 5.564M106 250.573c0 2.779.365 3.502 1.643 3.25 3.994-.786 4.338-6.823.388-6.823-1.662 0-2.031.648-2.031 3.573m24 0c0 2.779.365 3.502 1.643 3.25 3.994-.786 4.338-6.823.388-6.823-1.662 0-2.031.648-2.031 3.573m16-.073c0 3.747 1.784 4.67 3.96 2.048 1.647-1.985.345-5.548-2.027-5.548-1.542 0-1.933.707-1.933 3.5m-77.475-1.54c-.848 1.372-.097 2.402 1.38 1.894.606-.208.683-.914.188-1.711-.625-1.006-1.03-1.053-1.568-.183m50.475.54c0 .825.45 1.5 1 1.5s1-.675 1-1.5-.45-1.5-1-1.5-1 .675-1 1.5m73.636.006c-.348.907.003 1.494.895 1.494 1.618 0 1.986-1.563.574-2.435-.493-.305-1.153.119-1.469.941" fill="#1976D2" fill-rule="evenodd"/><path fill-opacity=".338" d="M116.5 4.467c-9.101 1.672-20.806 5.655-29.533 10.05-7.962 4.009-9.263 5.396-2.237 2.385 15.103-6.474 39.832-9.538 55.974-6.934 25.314 4.084 47.336 19.143 57.175 39.097 5.837 11.839 7.428 20.346 6.812 36.435-.553 14.425-2.527 22.946-8.121 35.055-14.15 30.625-46.15 52.79-79.573 55.117-10.326.719-22.411-1.086-25.07-3.745-1.725-1.725-1.748-2.112-.318-5.533 2.242-5.367 1.168-7.664-5.967-12.756-8.75-6.243-18.697-17.27-22.401-24.831-3.452-7.049-5.964-18.484-4.403-20.045.633-.633 3.903-.593 9.318.113 23.511 3.064 57.486 2.292 80.315-1.824 10.287-1.855 28.954-6.959 28.202-7.711-.187-.188-4.687.311-10 1.109-29.478 4.425-75.12 1.96-101.673-5.491-10.497-2.946-17.008-3.485-19.5-1.616-1.785 1.338-2 2.667-2 12.329 0 8.777.462 12.241 2.44 18.279 4.518 13.797 13.754 25.072 29.06 35.473 6.173 4.196 6.193 4.226 6.364 9.354.167 5.019.11 5.13-2.346 4.547-1.385-.328-4.741-1.425-7.458-2.437-7.903-2.943-6.327-1.531 3.175 2.846 13.961 6.43 20.43 7.753 37.765 7.726 13.181-.02 16.213-.354 25-2.752 5.679-1.549 15.185-5.298 22-8.675 27.809-13.78 46.739-35.677 55.107-63.744 2.025-6.792 2.736-11.751 3.13-21.831.624-15.949-1.308-25.084-8.305-39.285C199.389 24.79 178.745 9.746 153.73 4.579c-9.15-1.89-27.258-1.945-37.23-.112m29.263 45.098C142.252 51.47 140 55.857 140 60.792c0 3.467-1.416 5.706-12.995 20.549C119.858 90.504 114.427 98 114.936 98c.509 0 6.684-7.42 13.721-16.489 11.383-14.67 12.762-16.867 12.5-19.915-.163-1.885.44-4.851 1.34-6.59 1.695-3.279 7.357-6.419 10.351-5.741 1.107.25.441.9-2.018 1.97-4.455 1.938-5.829 4.28-5.834 9.949-.003 4-.916 5.487-12.478 20.316-6.861 8.8-12.485 16.355-12.497 16.789-.011.434 3.897.659 8.685.5l8.707-.289 7.543-12.634c6.161-10.319 8.131-12.848 10.745-13.797 13.047-4.739 9.889-24.196-3.901-24.029-1.815.022-4.532.708-6.037 1.525m38.841 58.59c-1.921 2.743-.472 5.845 2.731 5.845 4.266 0 5.974-3.548 3.094-6.429-2.158-2.157-4.037-1.969-5.825.584m-21.949 8.674c-3.409 3.766-.727 9.171 4.551 9.171 3.086 0 5.044-2.135 5.044-5.5 0-1.372-.561-3.17-1.247-3.997-1.717-2.068-6.345-1.887-8.348.326m-44.988 6.838c-.367.366-.667 3.516-.667 7V137h-13v12h13v13h13v-13h13V137.095l-6.25-.297-6.25-.298-.296-6.75-.295-6.75h-5.788c-3.183 0-6.088.3-6.454.667m46 16c-.367.366-.667 1.716-.667 3 0 1.83.546 2.333 2.531 2.333 1.393 0 2.793-.681 3.112-1.513 1.037-2.701-2.998-5.798-4.976-3.82m15.502 62.306c-7.765 1.882-12.453 10.592-10.233 19.014 2.104 7.979 7.209 11.497 15.667 10.796 6.073-.504 9.048-2.293 7.304-4.395-.795-.958-1.644-1.064-2.946-.367-1.006.538-3.694.979-5.972.979-3.246 0-4.776-.633-7.066-2.923-2.474-2.475-2.923-3.714-2.923-8.077 0-4.363.449-5.602 2.923-8.077 2.338-2.338 3.789-2.92 7.25-2.908 2.38.009 4.987.433 5.793.943 1.451.918 4.034-.337 4.034-1.959 0-2.104-9.268-4.132-13.831-3.026M18 217c0 14.333.089 15 2 15 1.778 0 2-.667 2-6v-6h7c6.333 0 7-.19 7-2s-.667-2-7-2h-7v-10h7.5c6.833 0 7.5-.178 7.5-2 0-1.86-.667-2-9.5-2H18v15m32.105-12.816c-.493 1.274-3.193 7.887-6 14.697C41.297 225.69 39 231.428 39 231.631c0 .203.923.369 2.051.369 1.399 0 2.516-1.113 3.513-3.5l1.463-3.5h15.075l1.462 3.5c.999 2.389 2.115 3.5 3.517 3.5 2.5 0 2.546.169-4.574-16.822-4.714-11.248-5.606-12.714-7.91-12.994-1.952-.238-2.818.258-3.492 2m23.583 12.476c.178 14.148.283 14.855 2.25 15.16 1.854.287 2.062-.193 2.062-4.75V222h3.896c3.58 0 4.155.405 7.104 5 2.44 3.802 3.805 5 5.698 5h2.49l-3.636-5.06-3.635-5.06 3.042-2.841c4.125-3.854 4.342-10.468.462-14.115-2.243-2.108-3.711-2.468-11.25-2.764l-8.671-.341.188 14.841M102 217c0 14.333.089 15 2 15 1.88 0 2.002-.677 2.032-11.25.036-12.682.163-12.713 6.168-1.5 4.187 7.82 5.668 7.573 10.452-1.746 2.116-4.122 4.186-7.497 4.598-7.5.412-.002.75 4.946.75 10.996 0 10.333.121 11 2 11 1.911 0 2-.667 2-15v-15h-2.408c-1.981 0-3.254 1.508-7.179 8.5-2.624 4.675-5.099 8.5-5.5 8.5-.401 0-2.876-3.825-5.5-8.5-3.847-6.855-5.22-8.5-7.092-8.5H102v15m44.008-7.305a2587.964 2587.964 0 0 1-6.116 14.66c-1.591 3.77-2.892 7.032-2.892 7.25 0 .217.923.395 2.051.395 1.399 0 2.516-1.113 3.513-3.5l1.463-3.5h15.075l1.462 3.5c.976 2.335 2.124 3.5 3.449 3.5 1.093 0 1.972-.338 1.954-.75-.018-.412-2.635-7.05-5.816-14.75-5.156-12.479-6.063-14.033-8.351-14.305-2.341-.278-2.852.383-5.792 7.5M198 217v15h5v-30h-5v15m21.116-12.816c-.487 1.274-3.187 7.821-6 14.55-2.814 6.728-5.116 12.466-5.116 12.75 0 .284.923.516 2.051.516 1.399 0 2.516-1.113 3.513-3.5l1.463-3.5h15.075l1.462 3.5c.999 2.389 2.115 3.5 3.517 3.5 2.475 0 2.63.568-4.508-16.5-4.808-11.497-5.734-13.037-8.004-13.316-1.925-.238-2.79.263-3.453 2M78 212v6h4.777c5.926 0 9.223-2.11 9.223-5.902 0-4.171-2.79-6.098-8.829-6.098H78v6m-27.348 1.018C49.193 216.38 48 219.552 48 220.066c0 .514 2.475.934 5.5.934s5.5-.39 5.5-.867c0-1.141-4.142-11.405-5.016-12.431-.375-.439-1.874 1.953-3.332 5.316m98.01.197c-1.467 3.457-2.666 6.623-2.665 7.035.002.412 2.478.75 5.503.75 3.223 0 5.5-.441 5.5-1.065 0-1.249-4.019-11.075-4.999-12.22-.369-.432-1.872 2.043-3.339 5.5m70.99-.197c-1.459 3.362-2.652 6.534-2.652 7.048 0 .514 2.475.934 5.5.934s5.5-.39 5.5-.867c0-1.141-4.142-11.405-5.016-12.431-.375-.439-1.874 1.953-3.332 5.316M54.667 245.667c-1.768 1.767-.53 4.41 2.333 4.983 1.733.347 3 1.233 3 2.1 0 1.133-.733 1.353-3 .9-3.619-.724-4.063 1.045-.487 1.943 5.267 1.322 7.503-4.006 2.478-5.903-3.647-1.376-3.343-3.307.455-2.888 1.72.19 2.495-.089 2.086-.75-.716-1.158-5.806-1.444-6.865-.385m11.387 4.43c-2.074 4.821-2.02 8.38.071 4.645 1.255-2.244 4.79-2.24 6.433.006 2.201 3.01 2.287.966.189-4.498-1.108-2.887-2.574-5.25-3.258-5.25-.683 0-2.229 2.294-3.435 5.097M77 250.5c0 6.179 1.71 7.546 2.19 1.75l.31-3.75 2.332 3.75c1.282 2.063 2.744 3.75 3.25 3.75.505 0 .918-2.475.918-5.5s-.45-5.5-1-5.5-1.012 1.463-1.027 3.25l-.027 3.25-2.723-3.259c-1.498-1.792-3.061-3.255-3.473-3.25-.412.005-.75 2.484-.75 5.509m11.417-4.75c.412.412 1.275.75 1.916.75.655 0 1.427 2.196 1.76 5l.593 5 .157-4.75c.133-4.031.46-4.75 2.157-4.75 1.1 0 2-.45 2-1s-2.1-1-4.667-1c-2.566 0-4.329.338-3.916.75M99 250.5c0 3.025.45 5.5 1 5.5s1-2.475 1-5.5-.45-5.5-1-5.5-1 2.475-1 5.5m5 0c0 5.415.045 5.5 2.929 5.5 3.668 0 6.071-2.324 6.071-5.871 0-3.613-1.685-5.129-5.7-5.129H104v5.5m12.964-.917c-2.247 5.243-2.523 7.737-.572 5.167 1.656-2.181 6.608-2.368 6.608-.25 0 .825.45 1.5 1 1.5 1.439 0 1.251-1.247-.964-6.417-1.081-2.521-2.447-4.583-3.036-4.583s-1.955 2.062-3.036 4.583M128 250.5c0 5.415.045 5.5 2.929 5.5 3.668 0 6.071-2.324 6.071-5.871 0-3.613-1.685-5.129-5.7-5.129H128v5.5m16 0c0 5.057.184 5.5 2.277 5.5 3.342 0 6.723-2.759 6.723-5.485 0-3.217-2.53-5.515-6.071-5.515-2.884 0-2.929.085-2.929 5.5m11.776-1.25c.543 7.005.985 7.603 1.108 1.5.064-3.162-.233-5.75-.66-5.75-.427 0-.629 1.912-.448 4.25m5.566 1.248c1.187 3.024 2.615 5.499 3.173 5.5.559.001 1.796-2.196 2.75-4.882 1.978-5.568 2.058-6.116.893-6.116-.463 0-1.423 1.912-2.133 4.25l-1.293 4.25-1.825-4.25c-2.696-6.277-4.084-5.17-1.565 1.248M172 250.5c0 3.025.45 5.5 1 5.5s1-2.475 1-5.5-.45-5.5-1-5.5-1 2.475-1 5.5m5 0c0 3.025.45 5.5 1 5.5s1-1.682 1-3.738v-3.738l2.66 3.738c1.463 2.056 3.038 3.738 3.5 3.738.462 0 .84-2.475.84-5.5s-.45-5.5-1-5.5-1.018 1.463-1.041 3.25l-.04 3.25-2.782-3.25c-1.531-1.787-3.087-3.25-3.46-3.25-.372 0-.677 2.475-.677 5.5m13.253-.25c-1.975 5.145-2.055 7.934-.128 4.492.536-.958 2.055-1.742 3.375-1.742 1.32 0 2.839.784 3.375 1.742s1.238 1.478 1.56 1.157c.935-.936-3.575-10.899-4.934-10.899-.678 0-2.14 2.363-3.248 5.25m-121.571-2.598c-1.27 1.27-.691 4.348.818 4.348.825 0 1.493-.562 1.485-1.25-.023-1.862-1.522-3.879-2.303-3.098M106 250.5c0 3.202.27 3.601 2.25 3.32 1.762-.251 2.25-.97 2.25-3.32 0-2.35-.488-3.069-2.25-3.32-1.98-.281-2.25.118-2.25 3.32m13-2.582c0 .505-.273 1.63-.607 2.5-.441 1.149-.001 1.582 1.607 1.582 1.608 0 2.048-.433 1.607-1.582-.334-.87-.607-1.995-.607-2.5 0-.505-.45-.918-1-.918s-1 .413-1 .918m11 2.582c0 3.202.27 3.601 2.25 3.32 1.762-.251 2.25-.97 2.25-3.32 0-2.35-.488-3.069-2.25-3.32-1.98-.281-2.25.118-2.25 3.32m15-.535c0 3.508 2.197 4.946 4.561 2.984 2.448-2.031 1.391-5.397-1.811-5.765-2.476-.285-2.75-.009-2.75 2.781m47.605-1.377c-.958 2.496-.718 3.412.895 3.412.825 0 1.5-.873 1.5-1.941 0-2.515-1.614-3.507-2.395-1.471" fill="#1976D2" fill-rule="evenodd"/></svg>