<svg xmlns="http://www.w3.org/2000/svg" width="256" height="256"><path fill="#1976D2" fill-opacity=".016" fill-rule="evenodd" d="M0 128.004v128.004l128.25-.254 128.25-.254.254-127.75L257.008 0H0zm.485.496c0 70.4.119 99.053.265 63.672.146-35.38.146-92.98 0-128C.604 29.153.485 58.1.485 128.5"/><path fill="#1976D2" fill-opacity=".287" fill-rule="evenodd" d="M3.053 84.436c-.925 1.114-.91 1.955.066 3.75L4.377 90.5 4.98 88c.75-3.115 3.576-3.63 8.54-1.556 5.282 2.207 5.61 1.882.98-.97-4.465-2.75-9.637-3.219-11.447-1.038m19.197 1.27c-2.004.386-2.25 1.027-2.25 5.864V97h-5c-2.75 0-5 .452-5 1.005 0 1.319 9.104 8.288 15.75 12.058L31 113.04v-2.52c0-2.388.288-2.52 5.5-2.52H42v-5.5c0-5.2-.136-5.5-2.5-5.5-1.375 0-2.507.563-2.515 1.25-.011.896-.224.929-.75.116-.404-.624-1.635-1.304-2.735-1.51-1.68-.315-2.048-1.295-2.3-6.116L30.9 85l-3.2.136c-1.76.075-4.212.331-5.45.57M0 89.066c0 3.584 8.195 13.4 16.31 19.534 7.413 5.604 16.146 9.911 23.38 11.53 4.618 1.034 5.539.973 7.135-.472 1.008-.912 3.476-1.658 5.485-1.658 3.09 0 3.732-.384 4.171-2.5l1.038-5c.47-2.263.992-2.5 5.5-2.5 4.646 0 4.981-.168 4.981-2.5 0-2.296-.367-2.5-4.5-2.5-3.833 0-4.5-.296-4.5-2 0-1.778.667-2 6-2h6v-6h-9.392c-10.827 0-9.691-1.286-11.701 13.25-.666 4.813-1.52 8.75-1.898 8.75-.378 0-1.201-1.125-1.827-2.5-.627-1.375-1.615-2.5-2.196-2.5-.735 0-.741.589-.021 1.934 4.065 7.596-5.725 6.775-20.254-1.699-7.123-4.155-17.663-13.874-20.245-18.669C1.589 88.081 0 86.935 0 89.066m70.57 15.88c-3.613 6.571-6.57 12.196-6.57 12.5 0 .305 1.784.554 3.965.554 2.941 0 4.241-.516 5.035-2 .794-1.484 2.094-2 5.035-2 3.298 0 3.965.336 3.965 2 0 1.842.667 2 8.433 2 9.179 0 8.639.364 10.082-6.798.542-2.689.924-3.083 2.07-2.131.773.641 1.929 2.913 2.569 5.048l1.163 3.881H122.804l.675-5.815c.918-7.916 2.482-10.202 2.519-3.685.046 7.824.776 9.5 4.143 9.5 2.088 0 3.157-.635 3.791-2.25.485-1.237 1.828-4.275 2.985-6.75l2.102-4.5-.567 5c-.311 2.75-.796 5.787-1.076 6.75-.454 1.557.32 1.75 7.021 1.75 6.509 0 7.678-.272 8.603-2 .789-1.475 2.094-2 4.968-2 3.019 0 4.04.451 4.532 2 .493 1.553 1.513 2 4.567 2 2.163 0 3.933-.382 3.933-.849 0-.466-1.125-5.934-2.5-12.151S166 93.54 166 93.349c0-.192-1.958-.349-4.352-.349h-4.351l-6.384 11.931c-3.512 6.562-6.465 11.849-6.562 11.75-.098-.1.673-5.356 1.713-11.681 1.04-6.325 1.901-11.612 1.914-11.75.012-.138-2.348-.25-5.245-.25h-5.268l-2.401 6.045c-1.32 3.325-2.775 6.276-3.232 6.559-.458.283-.832-1.726-.832-4.463 0-7.504-.476-8.141-6.088-8.141-5.564 0-4.93-1.186-7.469 13.989-1.476 8.822-2.443 12.341-2.443 8.889 0-.8-.865-3.153-1.923-5.227-1.631-3.199-1.701-3.858-.463-4.333 2.266-.87 4.624-6.234 3.939-8.961-.821-3.272-4.186-4.357-13.515-4.357h-7.833l-1.088 6.25c-.598 3.438-1.382 8.4-1.742 11.027-.36 2.628-.961 4.967-1.336 5.199-.374.231-1.727-4.731-3.007-11.028L85.707 93H77.14zm107.85-10.06c-5.729 3.493-8.489 14.716-4.884 19.862 3.668 5.237 15.161 4.996 19.41-.407 2.835-3.603 2.576-5.067-1.033-5.86-2.487-.546-3.38-.26-4.597 1.478-1.034 1.477-2.345 2.058-4.163 1.848-2.144-.248-2.71-.893-2.952-3.363-.452-4.623 1.336-8.29 4.419-9.064 1.971-.494 3.037-.202 3.984 1.093 1.007 1.377 2.081 1.621 4.845 1.103 4.231-.794 4.476-2.379.915-5.94-2.163-2.162-3.556-2.635-7.75-2.632-3.238.002-6.244.693-8.194 1.882m21.576-1.136c-.006 1.18-2.937 19.491-3.53 22.059-.501 2.168-.272 2.29 3.728 2l4.262-.309 1.71-10C208.696 92.701 208.741 93 204 93c-2.2 0-4.002.338-4.004.75m15.087 5.5a2364.994 2364.994 0 0 1-6.817 12.5l-3.438 6.25h4.469c3.629 0 4.568-.376 4.993-2 .414-1.582 1.364-2 4.549-2 3.148 0 4.165.436 4.661 2 .493 1.553 1.513 2 4.567 2 2.163 0 3.933-.359 3.933-.797 0-.683-2.96-15.034-4.528-21.953-.431-1.9-1.17-2.25-4.76-2.25-4.187 0-4.301.094-7.629 6.25m22.994-3.661c-3.526 2.967-4.106 7.186-1.327 9.657.963.856 3.681 2.128 6.041 2.826 4.872 1.441 5.48 4.22 1.036 4.736-1.96.228-2.826-.231-3.309-1.75-.493-1.556-1.498-2.058-4.117-2.058-4.335 0-5.378 2.214-2.72 5.774 3.833 5.134 13.471 5.228 18.517.182 5.375-5.375 2.548-11.975-5.799-13.541-1.928-.362-3.399-1.239-3.399-2.026 0-1.871 3.914-1.777 4.638.111.376.978 1.931 1.5 4.469 1.5 3.226 0 3.893-.342 3.893-2 0-6.201-11.914-8.468-17.923-3.411M102 101.066c0 1.663.535 2.005 2.741 1.75 1.654-.19 2.874-1.011 3.074-2.066.258-1.359-.355-1.75-2.742-1.75-2.439 0-3.073.426-3.073 2.066m-23.796 3.386C76.632 107.903 76.654 108 79 108c2.072 0 2.379-1.179 1.133-4.345-.649-1.649-.853-1.565-1.929.797M158.5 105c-1.477 2.857-1.455 3 .474 3 1.584 0 2.026-.654 2.026-3 0-1.65-.213-3-.474-3s-1.173 1.35-2.026 3m61 0c-1.477 2.857-1.455 3 .474 3 1.584 0 2.026-.654 2.026-3 0-1.65-.213-3-.474-3s-1.173 1.35-2.026 3M27 131c-2.533 2.533-2.672 8.404-.25 10.552.962.853 2.834 2.355 4.159 3.338 1.387 1.028 2.104 2.279 1.691 2.948-1.016 1.645-3.6 1.445-3.6-.279 0-1.893-1.432-2.714-3.41-1.955-2.216.85-1.986 5 .41 7.396 4.092 4.092 10.313 1.178 11.549-5.409.916-4.885-.229-7.471-4.134-9.333C29.942 136.602 28.772 134 31.5 134c.825 0 1.5.675 1.5 1.5 0 .933.944 1.5 2.5 1.5 1.956 0 2.5-.51 2.5-2.345 0-5.154-7.132-7.523-11-3.655m17-1.629c0 .204-1.574 5.492-3.497 11.75-1.923 6.258-3.498 11.717-3.5 12.129-.002.412 1.092.75 2.43.75 1.554 0 2.661-.722 3.067-2 .406-1.278 1.513-2 3.067-2 1.766 0 2.433.548 2.433 2 0 1.755.667 2 5.45 2h5.45l.3-5.75.3-5.75 2.006 5.5c1.658 4.543 2.459 5.553 4.602 5.802 2.49.29 2.623.049 3.244-5.897.356-3.409.715-8.72.798-11.802.082-3.082.337-4.365.566-2.853.301 1.986.995 2.75 2.498 2.75 1.999 0 2.059.36 1.495 9.061l-.587 9.06 2.689-.31c2.519-.291 2.705-.658 2.938-5.811.449-9.889 1.032-11.725 3.904-12.274l2.604-.498-.689 9.386-.689 9.386h2.467c2.717 0 2.846-.531 4.198-17.25l.627-7.75h-2.516c-1.814 0-2.637.628-2.949 2.25l-.434 2.25-.136-2.27c-.132-2.208-.409-2.267-10.09-2.149l-9.954.121-.609 4.649a403.038 403.038 0 0 1-.844 6.149c-.128.825-1.15-1.2-2.27-4.5-1.736-5.117-2.392-6-4.452-6-2.323 0-2.445.35-3.145 9-.401 4.95-.86 10.125-1.02 11.5-.16 1.375-1.153-2.787-2.205-9.25L49.632 129h-2.816c-1.549 0-2.816.167-2.816.371m49.6 3.879c-.288 2.338-.797 7.963-1.13 12.5l-.607 8.25h5.512c4.56 0 5.796-.388 7.161-2.25l1.649-2.25-.66 2.25c-.567 1.935-.287 2.25 2.001 2.25 1.82 0 2.827-.632 3.184-2 .329-1.258 1.364-2 2.79-2s2.461.742 2.79 2c.468 1.792 1.364 2 8.593 2 7.563 0 8.177-.162 9.754-2.569 3.714-5.668 3.55-18.359-.273-21.154-.961-.702-3.634-1.277-5.942-1.277-4.175 0-4.198.02-4.789 4.25-.327 2.338-.679 6.822-.783 9.966-.296 8.936-1.338 8.56-2.706-.978-1.886-13.155-1.978-13.395-4.991-13.043-2.316.271-2.906 1.241-5.355 8.805-2.04 6.3-2.721 7.594-2.63 5 .391-11.15-1.361-14-8.607-14h-4.438zm51.05 4.904c-.358 5.034-.65 10.683-.65 12.552v3.399l5.149-.303c6.957-.408 9.143-3.253 9.666-12.584.321-5.725.056-7.124-1.792-9.468-1.824-2.314-2.926-2.75-6.946-2.75h-4.778zm15.969-2.904c-1.769 20.468-1.846 18.75.837 18.75 1.334 0 2.62-.338 2.857-.75.237-.412.746-6.037 1.131-12.5l.7-11.75h-2.492c-2.334 0-2.527.399-3.033 6.25m6.371-4.5c-.005.963.76 6.609 1.702 12.548l1.711 10.799 2.96-.299c2.85-.287 3.075-.695 6.076-10.993 1.715-5.882 3.335-10.912 3.6-11.177.265-.265.175 3.198-.199 7.695-1.194 14.342-1.158 14.677 1.562 14.677 2.609 0 2.385.986 4.134-18.193l.611-6.694-4.892.038c-5.714.045-6.438.841-8.29 9.114-.697 3.116-1.591 5.466-1.985 5.223-.394-.244-1.029-3.604-1.409-7.466-.649-6.588-.843-7.022-3.132-7.022-1.652 0-2.442.564-2.449 1.75m23.582.5c-.256 1.238-.751 6.863-1.099 12.5L188.84 154h2.58c2.395 0 2.589-.341 2.698-4.75.066-2.613.054-5.121-.024-5.574-.079-.454.283-.561.805-.239.521.323 1.694 2.831 2.605 5.575l1.657 4.988h5.013c4.172 0 5.101-.336 5.536-2 .329-1.258 1.364-2 2.79-2s2.461.742 2.79 2c.353 1.351 1.364 2 3.116 2 1.427 0 2.591-.338 2.587-.75-.003-.412-.9-5.925-1.993-12.25s-1.99-11.642-1.993-11.816c-.004-.174-1.227-.174-2.719 0-2.515.293-2.982 1.15-6.447 11.816-2.055 6.325-3.555 9.925-3.333 8 .221-1.925.679-7.213 1.016-11.75l.613-8.25h-2.568c-2.289 0-2.577.408-2.639 3.75-.039 2.063-.401 4.592-.806 5.621-.586 1.492-.998.986-2.033-2.5-.714-2.404-1.756-4.933-2.317-5.621-1.675-2.055-4.689-1.475-5.202 1m57.589-.5c.089.412-.361 2.017-1 3.565-.638 1.548-1.161 3.288-1.161 3.867 0 .578-1.109.839-2.465.58-1.356-.259-2.6-.066-2.766.43-.165.496-1.966.206-4.003-.645-2.036-.851-3.996-1.547-4.356-1.547-1.55 0 2.371 3.427 5.34 4.668 3.54 1.48 4.204 3.914 1.589 5.826-1.464 1.071-1.375 1.196.75 1.061 1.326-.085 3.364-.678 4.53-1.319 1.165-.641 2.458-.844 2.874-.451.415.393.442-.306.058-1.554-.509-1.653-.01-3.085 1.839-5.282 2.098-2.493 2.368-3.455 1.566-5.566-.534-1.403-.716-2.963-.404-3.467.311-.504-.136-.916-.993-.916s-1.486.338-1.398.75m-149.473 4.896c-.379.378-.688 3.312-.688 6.521 0 4.485.342 5.833 1.481 5.833 1.82 0 2.763-3.434 2.339-8.518-.306-3.655-1.658-5.311-3.132-3.836m29.935.894c-.343.893-.623 3.837-.623 6.542 0 3.677.374 4.918 1.481 4.918 1.82 0 2.763-3.434 2.339-8.518-.337-4.031-2.142-5.692-3.197-2.942M150 138.375c0 1.856-.281 4.781-.625 6.5-.498 2.49-.29 3.125 1.025 3.125 3.045 0 4.931-9.269 2.4-11.8-1.996-1.996-2.8-1.372-2.8 2.175m-104.608 2.198c-.365 1.454-.155 3.064.481 3.7.836.836 1.127.171 1.127-2.573 0-4.309-.688-4.791-1.608-1.127M114.136 139c-.09.825-.443 2.625-.786 4-.48 1.931-.346 2.243.592 1.372.668-.621 1.022-2.421.786-4-.236-1.58-.502-2.197-.592-1.372m99 0c-.09.825-.443 2.625-.786 4-.48 1.931-.346 2.243.592 1.372.668-.621 1.022-2.421.786-4-.236-1.58-.502-2.197-.592-1.372M74 167.437c0 3.389.386 4.563 1.5 4.563.825 0 1.5-.623 1.5-1.383 0-.761.936-1.628 2.079-1.927 1.495-.391 1.987-1.197 1.75-2.867-.256-1.805-1.054-2.393-3.579-2.636-3.238-.313-3.25-.296-3.25 4.25m8 0c0 4.636 1.17 5.869 2.801 2.954.828-1.48.951-1.48 1.519 0 1.188 3.097 2.557 1.571 2.37-2.641-.18-4.018-.367-4.267-3.44-4.563-3.238-.313-3.25-.296-3.25 4.25m8 .063c0 4.476.019 4.5 3.5 4.5 1.925 0 3.5-.45 3.5-1s-.9-1-2-1-2-.45-2-1 .675-1 1.5-1c2.077 0 1.888-1.752-.25-2.311-1.317-.344-1.193-.486.5-.573 3.686-.19 2.549-2.116-1.25-2.116-3.481 0-3.5.024-3.5 4.5m7.932-2.374c-1.633 3.053.279 6.874 3.44 6.874 1.328 0 2.698-.739 3.045-1.643.823-2.147-.129-3.045-1.634-1.54-1.847 1.847-2.783 1.405-2.783-1.317s.936-3.164 2.783-1.317c1.474 1.474 2.666.43 1.872-1.64-.886-2.31-5.383-1.92-6.723.583M106 167.5c0 2.475.45 4.5 1 4.5s1-2.025 1-4.5-.45-4.5-1-4.5-1 2.025-1 4.5m4.2-3.3c-.66.66-1.2 2.145-1.2 3.3 0 4.596 5.281 6.173 7.124 2.126 2.058-4.516-2.583-8.767-5.924-5.426m10.467-.533c-1.396 1.395-.566 3.327 2.083 4.853l2.75 1.584-2.848-.596c-2.072-.433-2.73-.243-2.417.698.238.712 1.744 1.294 3.348 1.294 3.812 0 4.644-3.607 1.214-5.259l-2.297-1.106 2.309-.067c1.272-.038 2.032-.517 1.691-1.068-.694-1.123-4.808-1.358-5.833-.333m7.705 1.988c-1.219 4.857 3.59 8.486 6.312 4.763 1.193-1.632 1.316-1.642 1.316-.109 0 1.212.849 1.691 3 1.691 1.65 0 3-.45 3-1s-.675-1-1.5-1c-1.048 0-1.5-1.056-1.5-3.5s-.452-3.5-1.5-3.5c-.825 0-1.514.787-1.53 1.75-.029 1.667-.079 1.667-1.05 0-1.639-2.813-5.758-2.244-6.548.905M143 167.5c0 2.475.45 4.5 1 4.5s1-2.025 1-4.5-.45-4.5-1-4.5-1 2.025-1 4.5m3.394-3.084c-.299.778-.397 2.691-.219 4.25.276 2.404.776 2.834 3.301 2.834 2.329 0 3.181-.585 3.922-2.69.676-1.924.577-3.135-.348-4.25-1.616-1.947-5.928-2.041-6.656-.144m8.707 2.641c-.682 2.276-.922 4.431-.533 4.79.388.359.907.091 1.152-.597.53-1.483 3.28-1.693 3.28-.25 0 .55 1.35 1 3 1 2.179 0 3.008-.479 3.03-1.75.029-1.667.079-1.667 1.05 0 1.733 2.975 2.808 1.944 2.61-2.5-.18-4.018-.367-4.267-3.44-4.563-3.203-.309-3.251-.251-3.327 4l-.077 4.313-1.203-3.992c-1.655-5.493-3.975-5.682-5.542-.451M171 167.5c0 2.475.45 4.5 1 4.5s1-2.025 1-4.5-.45-4.5-1-4.5-1 2.025-1 4.5m3.372-1.845c-.811 3.232.598 5.736 3.47 6.163 2.891.43 4.855-3.646 3.226-6.692-1.697-3.169-5.85-2.842-6.696.529M77 166.059c0 .582.45.781 1 .441s1-.816 1-1.059-.45-.441-1-.441-1 .477-1 1.059m8 0c0 .582.45.781 1 .441s1-.816 1-1.059-.45-.441-1-.441-1 .477-1 1.059m27 1.441c0 1.375.45 2.5 1 2.5s1-1.125 1-2.5-.45-2.5-1-2.5-1 1.125-1 2.5m18.754-1.25c-.596 1.622.158 3.75 1.329 3.75.505 0 .917-1.125.917-2.5 0-2.608-1.45-3.415-2.246-1.25M149 167.5c0 1.375.45 2.5 1 2.5s1-1.125 1-2.5-.45-2.5-1-2.5-1 1.125-1 2.5m16-1.5c0 .55.45 1 1 1s1-.45 1-1-.45-1-1-1-1 .45-1 1m11.754.25c-.596 1.622.158 3.75 1.329 3.75.505 0 .917-1.125.917-2.5 0-2.608-1.45-3.415-2.246-1.25"/><path fill="#1976D2" fill-opacity=".285" fill-rule="evenodd" d="M4.75 83.689C3.778 83.943 3 85.088 3 86.264c0 2.022.061 2.034 1.348.275 1.089-1.489 2.193-1.731 5.75-1.261 4.168.551 4.269.508 1.902-.813-2.547-1.42-4.133-1.59-7.25-.776M20 91.5V97l-5.25.04-5.25.039 4.793 4.412C18.517 105.379 28.647 112 30.372 112c.345 0 .628-.9.628-2 0-1.758.667-2 5.5-2H42v-5.5c0-4.754-.26-5.5-1.917-5.5-1.054 0-2.179.563-2.5 1.25-.466 1-.7 1-1.166 0-.321-.687-1.671-1.25-3-1.25C31.154 97 31 96.649 31 91.5V86H20zM.059 88.554c-.13 2.327 5.958 10.29 12.327 16.123 8.341 7.64 21.013 14.199 29.03 15.026l5.584.577v-3.518c0-1.939-.687-4.088-1.532-4.788-1.34-1.113-1.409-.95-.554 1.3 3.222 8.474-12.575 4.296-28.309-7.487-5.981-4.479-11.494-10.391-15.296-16.403-.655-1.036-1.218-1.41-1.25-.83M52.406 94.5c-.668 1.994-3.4 19.057-3.403 21.25-.003 1.901.534 2.25 3.463 2.25 3.403 0 3.477-.089 4.128-5l.664-5h4.764c3.422 0 4.935-.446 5.371-1.582 1.149-2.995.592-3.418-4.5-3.418-4.246 0-5.005-.267-4.5-1.582.334-.87.607-1.77.607-2 0-.23 2.427-.418 5.393-.418C69.587 99 71 98.142 71 94.989c0-1.231-18.186-1.71-18.594-.489m27.387-.704c-2.941.357-3.514 1.147-11.198 15.454l-4.7 8.75h3.985c3.107 0 4.125-.441 4.62-2 .507-1.598 1.513-2 5-2s4.493.402 5 2c.472 1.488 1.513 2 4.067 2 4.074 0 4.045.247 1.395-12.047-3.054-14.161-2.194-12.883-8.169-12.157m15.613.704c-.668 1.994-3.4 19.057-3.403 21.25-.003 1.901.534 2.25 3.463 2.25 3.407 0 3.476-.084 4.135-5.047.848-6.395 3.136-6.372 5.502.056 1.557 4.23 1.893 4.509 5.775 4.798 2.313.173 4.122-.136 4.122-.702 0-1.5-2.199-6.378-3.684-8.174-1.104-1.334-.851-1.898 1.693-3.78 2.285-1.689 2.991-3.001 2.991-5.558 0-1.842-.565-3.817-1.256-4.39-1.672-1.388-18.9-2.014-19.338-.703m25.063-.452c-.185.301-1.049 4.801-1.918 10-.87 5.199-1.808 10.465-2.085 11.702-.433 1.934-.095 2.25 2.408 2.25 3.361 0 3.692-.61 4.656-8.593.869-7.19 2.391-10.552 2.448-5.407.022 1.925.323 5.862.67 8.75.586 4.875.823 5.25 3.319 5.25 2.429 0 3.046-.842 6.407-8.75 4.007-9.428 3.888-9.711 1.926 4.581-.59 4.3-.574 4.328 2.303 4 2.829-.323 2.937-.553 4.596-9.831 2.632-14.714 2.67-14.523-2.839-14.379l-4.641.121-2.453 5.879c-3.263 7.819-4.239 8.671-4.384 3.829-.065-2.172-.403-5.249-.75-6.837-.573-2.62-1.036-2.898-4.979-3-2.39-.062-4.498.134-4.684.435m36.602.452C155.896 96.052 145 116.722 145 117.399c0 .33 1.617.601 3.594.601 2.752 0 3.716-.468 4.116-2 .433-1.656 1.364-2 5.407-2 4.216 0 4.883.273 4.883 2 0 1.672.667 2 4.067 2 3.416 0 3.98-.281 3.521-1.75-.301-.963-1.463-6.219-2.582-11.681-1.119-5.463-2.246-10.142-2.503-10.4-.918-.917-7.688-.651-8.432.331m23 .195c-4.531 2.385-7.093 6.05-7.773 11.123-1.088 8.106 2.631 12.182 11.114 12.182 4.508 0 8.644-2.368 10.635-6.087.869-1.624.61-2.093-1.624-2.942-2.271-.864-2.997-.644-4.992 1.509-2.701 2.914-4.635 3.173-6.886.922-1.172-1.172-1.424-2.573-.945-5.25 1.145-6.4 5.556-9.114 9.321-5.736 2.115 1.897 7.079.931 7.079-1.378 0-4.915-9.776-7.581-15.929-4.343m20.371-.196c-.545 1.793-3.442 20.204-3.442 21.875 0 1.188.931 1.626 3.455 1.626 3.12 0 3.507-.315 3.996-3.25 2.818-16.917 3.303-20.304 2.958-20.661-.85-.879-6.679-.536-6.967.41m17.629.001C216.896 96.052 206 116.722 206 117.399c0 .33 1.559.601 3.465.601 2.441 0 3.781-.591 4.535-2 .825-1.542 2.094-2 5.535-2 3.798 0 4.465.299 4.465 2 0 1.672.667 2 4.067 2 3.4 0 3.985-.287 3.562-1.75-.278-.963-1.457-6.235-2.618-11.718-1.162-5.482-2.307-10.161-2.545-10.399-.889-.89-7.668-.594-8.395.367m21.206.473c-6.448 3.931-5.198 10.118 2.496 12.353 4.977 1.446 7.018 4.773 3.707 6.043-1.815.697-5.48-.911-5.48-2.404 0-.531-1.575-.965-3.5-.965-2.833 0-3.5.381-3.5 2 0 1.1.9 2.9 2 4 2.446 2.446 10.655 2.747 14.909.547 3.247-1.679 5.571-6.459 4.611-9.484-.663-2.09-5.232-5.063-7.779-5.063-.747 0-2.201-.616-3.23-1.368-1.809-1.323-1.8-1.407.295-2.528 1.787-.956 2.439-.841 3.726.662 2.232 2.607 8.452 1.889 7.725-.892-1.28-4.892-10.091-6.492-15.98-2.901M101.755 100.5c-.434 2.269-.165 2.5 2.915 2.5 3.677 0 5.677-2.533 3.226-4.086-2.789-1.766-5.641-1.029-6.141 1.586m-24.09 4.077C75.541 109.03 75.536 109 78.5 109c2.182 0 2.5-.437 2.5-3.441 0-4.744-1.352-5.142-3.335-.982m81.02-.877c-2.181 4.143-2.125 5.3.256 5.3 2.625 0 3.028-.936 2.163-5.025l-.735-3.475zm61 0c-2.181 4.143-2.125 5.3.256 5.3 2.625 0 3.028-.936 2.163-5.025l-.735-3.475zM28.302 130.501c-2.624 1.838-3.82 6.662-2.339 9.43.603 1.127 2.461 2.754 4.129 3.616 2.202 1.139 2.947 2.166 2.72 3.751-.412 2.884-3.449 3.421-4.294.759-.812-2.559-4.518-2.788-4.518-.28 0 3.436 2.912 6.223 6.5 6.223 4.312 0 6.5-2.931 6.5-8.71 0-3.901-.348-4.484-4.074-6.836-3.458-2.184-3.881-2.803-2.802-4.103 1.139-1.373 1.391-1.367 2.434.059.639.874 2.083 1.59 3.209 1.59 1.613 0 1.933-.476 1.512-2.25-1.065-4.484-5.119-5.951-8.977-3.249m13.879 6.699a1324.275 1324.275 0 0 1-3.621 12.05L37.096 154h2.452c1.785 0 2.452-.544 2.452-2 0-1.545.667-2 2.933-2 2.054 0 3.122.599 3.567 2 .685 2.158 4.548 2.813 4.426.75-.041-.687-.85-5.975-1.798-11.75-1.635-9.959-1.854-10.515-4.257-10.8-2.347-.278-2.693.238-4.69 7m13.427-2.95c-.283 2.338-.755 7.738-1.048 12-.493 7.155-.387 7.75 1.381 7.75 1.59 0 2.025-.977 2.564-5.75.356-3.162.764-6.2.906-6.75.142-.55 1.269 2.037 2.505 5.75 1.7 5.108 2.7 6.75 4.107 6.75 1.022 0 2.055-.338 2.294-.75.239-.412.754-5.812 1.143-12 .69-10.962.655-11.25-1.376-11.25-1.857 0-2.084.593-2.084 5.441 0 2.993-.393 5.684-.873 5.981-.48.296-1.854-2.152-3.054-5.441-1.612-4.422-2.672-5.981-4.065-5.981-1.471 0-1.999.935-2.4 4.25m15.999-2.668C70.553 134.328 70.93 135 73.52 135h2.52l-.667 9.5c-.638 9.071-.577 9.5 1.342 9.5 1.806 0 2.102-.945 2.898-9.25.817-8.516 1.065-9.275 3.137-9.57 1.629-.231 2.25-.99 2.25-2.75 0-2.32-.289-2.43-6.393-2.43-4.907 0-6.534.368-7 1.582m15.306 1.668c-.048 1.787-.388 7.188-.756 12-.645 8.442-.594 8.75 1.438 8.75 1.94 0 2.157-.719 2.755-9.154C91.356 130.672 91.295 130 89 130c-1.572 0-2.019.696-2.087 3.25m6.734 4.401c-.356 4.208-.647 9.608-.647 12V154h4.045c5.38 0 8.556-3.153 9.497-9.43.802-5.351.097-11.095-1.616-13.159-.706-.851-3.049-1.411-5.902-1.411h-4.731zm18.83-6.401c-.979 2.655-6.455 21.289-6.466 22-.026 1.71 3.797.593 4.279-1.25.381-1.456 1.364-2 3.616-2 2.427 0 3.094.431 3.094 2 0 1.333.667 2 2 2 2.472 0 2.499-1.085.347-14.045-1.553-9.352-1.797-9.955-4.032-9.955-1.308 0-2.585.563-2.838 1.25m11.177 7c-.353 4.537-.645 9.938-.648 12-.006 3.633.105 3.75 3.56 3.75 4.852 0 7.34-1.531 9.019-5.548 1.902-4.554 1.825-13.421-.142-16.229-1.24-1.772-2.53-2.223-6.351-2.223h-4.796zm21.944-5c-.271 1.787-.72 7.188-.997 12l-.504 8.75h3.87c5.306 0 6.856-.756 8.646-4.219 1.866-3.609 2.187-14.418.521-17.531-.998-1.865-2.046-2.25-6.124-2.25-4.782 0-4.933.091-5.412 3.25m15.402-.404c0 1.566-.292 6.966-.65 12-.623 8.786-.567 9.154 1.41 9.154 1.877 0 2.115-.781 2.676-8.75.338-4.812.8-10.213 1.027-12 .366-2.89.141-3.25-2.026-3.25-2.012 0-2.437.496-2.437 2.846m6.007-2.666c.003.176.9 5.495 1.993 11.82s1.99 11.613 1.993 11.75c.018.652 5.008.155 5.017-.5.006-.412 1.538-5.812 3.404-12 3.177-10.537 3.272-11.25 1.489-11.25-1.236 0-1.903.701-1.903 2 0 1.1-.389 2-.863 2-.475 0-1.437 2.7-2.137 6s-1.608 6-2.017 6c-.41 0-1.136-3.488-1.614-7.75-.781-6.964-1.097-7.782-3.119-8.07-1.238-.175-2.247-.175-2.243 0m16.557 8.57c-.338 4.813-.8 10.213-1.027 12-.366 2.89-.141 3.25 2.026 3.25 2.148 0 2.438-.444 2.443-3.75.003-2.062.295-7.463.648-12 .613-7.869.547-8.25-1.416-8.25-1.874 0-2.114.783-2.674 8.75m7.005-.057c-.341 4.844-.805 10.27-1.032 12.057-.333 2.633-.064 3.25 1.419 3.25 2.337 0 3.044-1.916 3.044-8.248 0-6.038.786-5.571 3.492 2.073 1.483 4.19 2.557 5.753 4.105 5.974 1.96.28 2.139-.301 2.75-8.903 1.01-14.229.949-14.896-1.347-14.896-1.778 0-2 .667-2 6 0 3.3-.347 6-.77 6-.424 0-1.661-2.588-2.75-5.75-1.499-4.352-2.504-5.825-4.135-6.057-2.029-.289-2.192.21-2.776 8.5m20.908-7.443c-.979 2.655-6.455 21.289-6.466 22-.026 1.71 3.797.593 4.279-1.25.381-1.456 1.364-2 3.616-2 2.427 0 3.094.431 3.094 2 0 1.428.667 2 2.33 2h2.331l-1.982-12c-1.886-11.416-2.098-12-4.362-12-1.309 0-2.587.563-2.84 1.25M97.665 141.687c-.686 7.349-.396 8.259 2.133 6.68 3.828-2.39 4.097-13.367.328-13.367-1.537 0-1.939 1.092-2.461 6.687m30 0c-.686 7.349-.396 8.259 2.133 6.68 3.828-2.39 4.097-13.367.328-13.367-1.537 0-1.939 1.092-2.461 6.687m22.036-6.055c-.385.386-.701 3.551-.701 7.035 0 4.895.333 6.333 1.465 6.333 2.29 0 3.67-3.628 3.338-8.775-.212-3.29-.769-4.795-1.852-5.001-.852-.161-1.864.022-2.25.408m-103.983 2.051c-.266.45-.796 2.28-1.18 4.067-.605 2.823-.432 3.25 1.32 3.25 1.766 0 1.944-.465 1.438-3.75-.65-4.209-.885-4.74-1.578-3.567m67.558 3.126c-.969 3.82-.896 4.191.83 4.191 2.016 0 2.439-2.747.994-6.441-.62-1.583-.956-1.169-1.824 2.25m99 0c-.969 3.82-.896 4.191.83 4.191 2.016 0 2.439-2.747.994-6.441-.62-1.583-.956-1.169-1.824 2.25m30.474-.147c.688.278 1.813.278 2.5 0 .688-.277.125-.504-1.25-.504s-1.937.227-1.25.504m-.75 4.125c0 .433.91.856 2.022.94 1.112.083 1.76-.271 1.441-.788-.703-1.136-3.463-1.258-3.463-.152M75.063 167.75c.052 3.859.233 4.328.968 2.5.498-1.238 1.567-2.25 2.378-2.25.81 0 1.763-.47 2.118-1.044.904-1.462-1.397-3.956-3.649-3.956-1.583 0-1.868.747-1.815 4.75m8.073 0c.075 2.613.331 3.738.57 2.5.537-2.788 1.948-2.914 2.794-.25 1.003 3.159 1.991 2.334 2.1-1.753.105-3.888-.865-5.206-3.85-5.232-1.442-.012-1.726.821-1.614 4.735M91 167.5c0 4.133.204 4.5 2.5 4.5 1.375 0 2.5-.45 2.5-1s-.9-1-2-1c-2.771 0-2.531-1.985.25-2.063 2.196-.062 2.19-.09-.25-1.174-2.494-1.107-2.495-1.111-.25-1.506 3.052-.537 2.862-2.257-.25-2.257-2.296 0-2.5.367-2.5 4.5m8.229-3.329c-1.683 1.683-1.545 5.322.258 6.818 1.663 1.38 4.513.698 4.513-1.08 0-.852-.351-.862-1.342-.04-1.657 1.375-2.658.484-2.658-2.369 0-2.932 1.01-3.735 2.821-2.241 1.231 1.016 1.414.969 1.009-.259-.646-1.954-3.043-2.387-4.601-.829M106 167.5c0 2.824.388 4.378 1 4 .55-.34 1-2.14 1-4 0-1.86-.45-3.66-1-4-.612-.378-1 1.176-1 4m4.667-3.833c-1.382 1.382-.671 7.117.96 7.743 2.154.827 4.373-1.118 4.373-3.832 0-3.394-3.375-5.869-5.333-3.911m10.646.961c-.395 1.028.186 2.24 1.576 3.288 2.391 1.804 1.925 3.3-.737 2.368-1.361-.477-1.427-.336-.374.796.936 1.008 1.721 1.095 2.94.326 2.667-1.682 2.628-3.291-.108-4.538-2.726-1.242-2.648-3.203.086-2.154 1.091.418 1.392.238.909-.544-1.051-1.701-3.567-1.432-4.292.458m7.619.498c-1.326 2.478.175 6.874 2.347 6.874 1.966 0 3.721-2.122 3.721-4.5 0-4.345-4.145-5.966-6.068-2.374m8.236 2.124c-.157 4.445-.007 4.75 2.332 4.75 1.375 0 2.5-.45 2.5-1s-.873-1-1.94-1c-1.505 0-2.027-.84-2.332-3.75-.359-3.436-.406-3.352-.56 1m6.499-3.583c-1.042 1.041-.782 7.144.333 7.833.611.378 1-1.156 1-3.941 0-4.636-.15-5.075-1.333-3.892M147 167.5c0 4.647.717 5.257 4.066 3.465 3.585-1.919 1.865-7.965-2.266-7.965-1.467 0-1.8.833-1.8 4.5m9.666-3.75c-.249.412-.908 2.415-1.464 4.449-.944 3.447-.888 3.622.811 2.561 1.395-.872 2.197-.831 3.406.173 1.887 1.566 1.945 1.014.423-4.067-1.105-3.686-2.19-4.751-3.176-3.116m6.397 4c.054 4.004.212 4.381 1.006 2.397l.943-2.354 1.794 2.216 1.794 2.215.023-3.862c.023-4.023-.917-5.321-3.873-5.347-1.432-.012-1.738.848-1.687 4.735m7.937-.25c0 2.824.388 4.378 1 4 .55-.34 1-2.14 1-4 0-1.86-.45-3.66-1-4-.612-.378-1 1.176-1 4m3.932-2.374c-1.326 2.478.175 6.874 2.347 6.874 1.966 0 3.721-2.122 3.721-4.5 0-4.345-4.145-5.966-6.068-2.374m-63.265-.459c-1.274 1.274-.685 5.333.774 5.333 1.977 0 2.812-1.628 2.056-4.009-.647-2.038-1.648-2.507-2.83-1.324m19.056-.056c-1.047 1.047-.887 5.169.227 5.858 1.684 1.041 3.116-2.996 1.734-4.887-.681-.931-1.564-1.369-1.961-.971m46 0c-1.047 1.047-.887 5.169.227 5.858 1.684 1.041 3.116-2.996 1.734-4.887-.681-.931-1.564-1.369-1.961-.971M76 166c0 .55.675 1 1.5 1s1.5-.45 1.5-1-.675-1-1.5-1-1.5.45-1.5 1m8 0c0 .55.675 1 1.5 1s1.5-.45 1.5-1-.675-1-1.5-1-1.5.45-1.5 1m64 1.5c0 1.982.439 2.562 1.75 2.31.963-.186 1.75-1.225 1.75-2.31s-.787-2.124-1.75-2.31c-1.311-.252-1.75.328-1.75 2.31m16-1.5c0 .55.675 1 1.5 1s1.5-.45 1.5-1-.675-1-1.5-1-1.5.45-1.5 1m-7 1.559c0 .857.457 1.276 1.016.931.559-.346.758-1.047.441-1.559-.857-1.387-1.457-1.129-1.457.628"/><path fill="#1976D2" fill-opacity=".281" fill-rule="evenodd" d="M21 91.5V97l-5.75.045-5.75.045 4.698 4.205c2.584 2.313 7.421 5.698 10.75 7.523L31 112.135v-2.567c0-2.446.261-2.568 5.5-2.568H42v-5c0-5.381-.328-5.815-2.643-3.5-.825.825-2.143 1.5-2.928 1.5-.786 0-1.429-.675-1.429-1.5 0-.833-.889-1.5-2-1.5-1.758 0-2-.667-2-5.5V86H21zm162.5 2.44c-4.813 1.144-7.367 2.901-9.108 6.269-2.286 4.421-2.257 12.177.055 14.732 4.12 4.553 14.716 3.448 18.549-1.935l2.097-2.945-2.602-.653c-1.9-.476-3.211-.08-4.861 1.47-2.514 2.362-5.607 2.745-7.43.922-2.796-2.796-.188-12.034 3.751-13.285 2.043-.648 6.049.929 6.049 2.382 0 1.036 4.841.17 5.561-.996.891-1.441-1.422-4.726-3.81-5.413-4.152-1.193-5.236-1.265-8.251-.548m59.268-.093c-4.15.992-6.768 3.746-6.768 7.12 0 3.214 2.373 5.375 7.209 6.563 4.012.987 5.516 3.174 3.54 5.15-1.903 1.902-6.749 1.041-6.749-1.199 0-1.026-1.076-1.481-3.5-1.481-4.035 0-4.509 1.532-1.588 5.139 2.607 3.22 11.567 3.387 15.711.293 6.252-4.667 4.19-10.953-4.373-13.332-4.546-1.263-5.615-3.532-2.178-4.623 1.284-.407 2.739-.053 3.828.933 2.22 2.009 7.1 2.12 7.1.161 0-1.721-2.681-4.566-4.321-4.585-.649-.007-2.079-.188-3.179-.403-1.1-.214-3.229-.095-4.732.264M52.537 95.25C52.132 96.517 49 115.221 49 116.374c0 .344 1.5.626 3.332.626 3.18 0 3.375-.217 4.25-4.75l.918-4.75h4.752c4.261 0 4.751-.232 4.75-2.25-.002-2.005-.5-2.25-4.572-2.25-4.166 0-4.541-.198-4.25-2.25.283-1.987.979-2.285 5.966-2.547 4.618-.243 5.738-.652 6.156-2.25.479-1.83-.053-1.953-8.427-1.953-6.27 0-9.057.373-9.338 1.25m18.627 10-6.007 11.25 3.028.321c2.19.233 3.438-.266 4.515-1.803 2.075-2.963 9.65-2.568 10.093.526.244 1.708.867 1.977 3.781 1.637 2.653-.31 3.378-.8 3.027-2.044-.255-.9-1.207-5.237-2.117-9.637C84.97 93.351 85.335 94 81.018 94h-3.847zm24.361-10c-.227.688-.899 4.625-1.494 8.75-.594 4.125-1.328 8.876-1.631 10.558-.537 2.985-.467 3.048 2.926 2.652 3.256-.38 3.518-.684 4.136-4.808.514-3.425 1.082-4.402 2.559-4.402 1.357 0 2.25 1.172 3.128 4.104 1.364 4.552 2.262 5.185 6.695 4.716l3.034-.32-2.421-5c-1.552-3.206-2.023-5.135-1.314-5.375 4.327-1.466 6.237-7.602 3.286-10.554-2.023-2.022-18.252-2.298-18.904-.321m23.159 9.5c-2.096 13.226-2.153 12.25.708 12.25 2.671 0 3.137-1.141 4.216-10.32.371-3.155 1.02-5.95 1.443-6.211.423-.262 1.088 3.351 1.477 8.028.701 8.418.736 8.503 3.434 8.503 2.487 0 3.025-.746 6.132-8.493 1.873-4.671 3.774-8.496 4.223-8.5.45-.004.602.78.338 1.743-.264.963-.76 3.55-1.102 5.75-.342 2.2-.854 5.181-1.139 6.624-.435 2.205-.109 2.701 2.049 3.114 2.013.385 2.668.034 3.035-1.624.633-2.858 3.495-19.924 3.499-20.864.002-.412-2.045-.75-4.548-.75-4.259 0-4.644.225-6 3.5a422.243 422.243 0 0 1-3.102 7.25l-1.653 3.75-.729-3c-.4-1.65-.782-4.912-.847-7.25L130 94h-9.612zm32.816.471c-3.3 6.199-6.12 11.521-6.267 11.826-.147.306 1.327.369 3.275.142 2.141-.25 3.941-1.16 4.552-2.301 1.484-2.773 8.918-2.686 9.65.112.393 1.503 1.364 2 3.907 2 3.98 0 3.938.493 1.065-12.5l-2.211-10-3.985-.275-3.986-.275zm49.042-8.971c-.273 1.237-.971 5.175-1.552 8.75-.581 3.575-1.302 7.737-1.602 9.25-.513 2.578-.329 2.75 2.93 2.75h3.477l1.061-6.25c.584-3.437 1.363-8.612 1.732-11.5l.67-5.25h-3.11c-2.411 0-3.221.505-3.606 2.25m11.749 9.552-6.208 11.787 3.483-.407c2.088-.244 3.889-1.163 4.494-2.294 1.484-2.773 8.918-2.686 9.65.112.398 1.519 1.364 2 4.023 2 3.106 0 3.446-.253 3.016-2.25-.266-1.237-1.305-6.412-2.31-11.5L226.612 94l-4.056.008-4.056.008zm-110.684-6.22c-1.159 3.021-.621 4.418 1.702 4.418 3.253 0 6.155-2.348 5.385-4.355-.829-2.161-6.264-2.209-7.087-.063m-23.922 3.952c-2.314 4.852-2.153 5.466 1.432 5.466 2.744 0 3.044-.269 2.513-2.25-.331-1.237-.609-3.263-.616-4.5-.02-3.287-1.404-2.753-3.329 1.284m80.494.176c-1.198 2.316-2.179 4.453-2.179 4.75 0 .297 1.35.54 3 .54 3.215 0 3.663-1.511 2.079-7-.7-2.428-.784-2.378-2.9 1.71m61 0c-1.198 2.316-2.179 4.453-2.179 4.75 0 .297 1.35.54 3 .54 3.215 0 3.663-1.511 2.079-7-.7-2.428-.784-2.378-2.9 1.71"/></svg>